<svg xmlns="http://www.w3.org/2000/svg" xmlns:xlink="http://www.w3.org/1999/xlink" version="1.1" width="256" height="256" viewBox="0 0 256 256" xml:space="preserve">
<desc>Created with Fabric.js 1.7.22</desc>
<defs>
</defs>
<g transform="translate(128 128) scale(0.72 0.72)" style="">
	<g style="stroke: none; stroke-width: 0; stroke-dasharray: none; stroke-linecap: butt; stroke-linejoin: miter; stroke-miterlimit: 10; fill: none; fill-rule: nonzero; opacity: 1;" transform="translate(-175.05 -175.05000000000004) scale(3.89 3.89)" >
	<path d="M 84 29 H 30.75 c -3.314 0 -6 -2.686 -6 -6 v 0 c 0 -3.314 2.686 -6 6 -6 H 84 c 3.314 0 6 2.686 6 6 v 0 C 90 26.314 87.314 29 84 29 z" style="stroke: none; stroke-width: 1; stroke-dasharray: none; stroke-linecap: butt; stroke-linejoin: miter; stroke-miterlimit: 10; fill: rgb(0,0,0); fill-rule: nonzero; opacity: 1;" transform=" matrix(1 0 0 1 0 0) " stroke-linecap="round" />
	<path d="M 9.25 29 H 6 c -3.314 0 -6 -2.686 -6 -6 v 0 c 0 -3.314 2.686 -6 6 -6 h 3.25 c 3.314 0 6 2.686 6 6 v 0 C 15.25 26.314 12.564 29 9.25 29 z" style="stroke: none; stroke-width: 1; stroke-dasharray: none; stroke-linecap: butt; stroke-linejoin: miter; stroke-miterlimit: 10; fill: rgb(0,0,0); fill-rule: nonzero; opacity: 1;" transform=" matrix(1 0 0 1 0 0) " stroke-linecap="round" />
	<path d="M 84 51 H 30.75 c -3.314 0 -6 -2.686 -6 -6 v 0 c 0 -3.314 2.686 -6 6 -6 H 84 c 3.314 0 6 2.686 6 6 v 0 C 90 48.314 87.314 51 84 51 z" style="stroke: none; stroke-width: 1; stroke-dasharray: none; stroke-linecap: butt; stroke-linejoin: miter; stroke-miterlimit: 10; fill: rgb(0,0,0); fill-rule: nonzero; opacity: 1;" transform=" matrix(1 0 0 1 0 0) " stroke-linecap="round" />
	<path d="M 9.25 51 H 6 c -3.314 0 -6 -2.686 -6 -6 v 0 c 0 -3.314 2.686 -6 6 -6 h 3.25 c 3.314 0 6 2.686 6 6 v 0 C 15.25 48.314 12.564 51 9.25 51 z" style="stroke: none; stroke-width: 1; stroke-dasharray: none; stroke-linecap: butt; stroke-linejoin: miter; stroke-miterlimit: 10; fill: rgb(0,0,0); fill-rule: nonzero; opacity: 1;" transform=" matrix(1 0 0 1 0 0) " stroke-linecap="round" />
	<path d="M 84 73 H 30.75 c -3.314 0 -6 -2.686 -6 -6 v 0 c 0 -3.314 2.686 -6 6 -6 H 84 c 3.314 0 6 2.686 6 6 v 0 C 90 70.314 87.314 73 84 73 z" style="stroke: none; stroke-width: 1; stroke-dasharray: none; stroke-linecap: butt; stroke-linejoin: miter; stroke-miterlimit: 10; fill: rgb(0,0,0); fill-rule: nonzero; opacity: 1;" transform=" matrix(1 0 0 1 0 0) " stroke-linecap="round" />
	<path d="M 9.25 73 H 6 c -3.314 0 -6 -2.686 -6 -6 v 0 c 0 -3.314 2.686 -6 6 -6 h 3.25 c 3.314 0 6 2.686 6 6 v 0 C 15.25 70.314 12.564 73 9.25 73 z" style="stroke: none; stroke-width: 1; stroke-dasharray: none; stroke-linecap: butt; stroke-linejoin: miter; stroke-miterlimit: 10; fill: rgb(0,0,0); fill-rule: nonzero; opacity: 1;" transform=" matrix(1 0 0 1 0 0) " stroke-linecap="round" />
</g>
</g>
</svg>